<svg width="9" height="23" viewBox="0 0 9 23" fill="none" xmlns="http://www.w3.org/2000/svg">
<path d="M-4.89568e-07 11.2C-5.75533e-07 9.23333 0.395833 7.29583 1.1875 5.38749C1.97917 3.47916 3.16667 1.78333 4.75 0.299993C4.95 0.0999933 5.18333 -5.94862e-06 5.45 -5.96027e-06C5.71667 -5.97193e-06 5.95 0.0999933 6.15 0.299993L8.4 2.59999C8.58333 2.78333 8.68333 2.99583 8.7 3.23749C8.71667 3.47916 8.65 3.69999 8.5 3.89999L6.3 6.79999C6.2 6.93333 6.08333 7.03333 5.95 7.09999C5.81667 7.16666 5.66667 7.19999 5.5 7.19999L2.65 7.19999C2.45 7.83333 2.29167 8.48333 2.175 9.14999C2.05833 9.81666 2 10.5 2 11.2C2 11.9 2.05833 12.5833 2.175 13.25C2.29167 13.9167 2.45 14.5667 2.65 15.2L5.5 15.2C5.66667 15.2 5.81667 15.2333 5.95 15.3C6.08333 15.3667 6.2 15.4667 6.3 15.6L8.5 18.5C8.65 18.7 8.71667 18.9208 8.7 19.1625C8.68333 19.4042 8.58333 19.6167 8.4 19.8L6.15 22.1C5.95 22.3 5.71667 22.4 5.45 22.4C5.18333 22.4 4.95 22.3 4.75 22.1C3.16667 20.6333 1.97917 18.9417 1.1875 17.025C0.395833 15.1083 -4.03602e-07 13.1667 -4.89568e-07 11.2Z" fill="#002B2B"/>
</svg>
